<mxfile host="app.diagrams.net" agent="Mozilla/5.0 (X11; Ubuntu; Linux x86_64; rv:131.0) Gecko/20100101 Firefox/131.0" version="24.8.0">
  <diagram id="C5RBs43oDa-KdzZeNtuy" name="Page-1">
    <mxGraphModel dx="1949" dy="1136" grid="1" gridSize="10" guides="1" tooltips="1" connect="1" arrows="1" fold="1" page="1" pageScale="1" pageWidth="827" pageHeight="1169" math="0" shadow="0">
      <root>
        <mxCell id="WIyWlLk6GJQsqaUBKTNV-0" />
        <mxCell id="WIyWlLk6GJQsqaUBKTNV-1" parent="WIyWlLk6GJQsqaUBKTNV-0" />
        <mxCell id="BK3RTOM4ylX85SdspDBA-17" value="&lt;div style=&quot;font-size: 11px; margin-top: 16px;&quot;&gt;&lt;font style=&quot;font-size: 11px;&quot;&gt;data_início_empréstimo&amp;nbsp;&lt;/font&gt;&lt;/div&gt;&lt;div style=&quot;font-size: 11px;&quot;&gt;&lt;font style=&quot;font-size: 11px;&quot;&gt;&amp;lt;&lt;/font&gt;&lt;/div&gt;&lt;div style=&quot;font-size: 11px;&quot;&gt;&lt;font style=&quot;font-size: 11px;&quot;&gt;&amp;nbsp;data_limite_pagamento&lt;/font&gt;&lt;/div&gt;" style="shape=note;whiteSpace=wrap;html=1;backgroundOutline=1;darkOpacity=0.05;container=0;" vertex="1" parent="WIyWlLk6GJQsqaUBKTNV-1">
          <mxGeometry x="674" y="443" width="130" height="90" as="geometry" />
        </mxCell>
        <mxCell id="ibe0FgVLeVuCVKN4VXd9-33" value="Funcionário" style="swimlane;fontStyle=0;align=center;verticalAlign=top;childLayout=stackLayout;horizontal=1;startSize=26;horizontalStack=0;resizeParent=1;resizeLast=0;collapsible=1;marginBottom=0;rounded=0;shadow=0;strokeWidth=1;container=0;" parent="WIyWlLk6GJQsqaUBKTNV-1" vertex="1">
          <mxGeometry x="27" y="790" width="160" height="120" as="geometry">
            <mxRectangle x="340" y="380" width="170" height="26" as="alternateBounds" />
          </mxGeometry>
        </mxCell>
        <mxCell id="ibe0FgVLeVuCVKN4VXd9-36" value="&lt;div&gt;id_funcionário&lt;br&gt;&lt;/div&gt;&lt;div&gt;nome&lt;/div&gt;&lt;div&gt;número_telemóvel&lt;/div&gt;&lt;div&gt;email&lt;/div&gt;&lt;div&gt;NIF&lt;/div&gt;&lt;div&gt;salário&lt;/div&gt;" style="text;whiteSpace=wrap;html=1;" parent="WIyWlLk6GJQsqaUBKTNV-1" vertex="1">
          <mxGeometry x="27" y="816" width="160" height="78" as="geometry" />
        </mxCell>
        <mxCell id="zkfFHV4jXpPFQw0GAbJ--0" value="Loja" style="swimlane;fontStyle=2;align=center;verticalAlign=top;childLayout=stackLayout;horizontal=1;startSize=26;horizontalStack=0;resizeParent=1;resizeLast=0;collapsible=1;marginBottom=0;rounded=0;shadow=0;strokeWidth=1;container=0;" parent="WIyWlLk6GJQsqaUBKTNV-1" vertex="1">
          <mxGeometry x="278" y="66" width="190" height="94" as="geometry">
            <mxRectangle x="230" y="140" width="160" height="26" as="alternateBounds" />
          </mxGeometry>
        </mxCell>
        <mxCell id="ibe0FgVLeVuCVKN4VXd9-4" value="id_loja&#xa;nome&#xa;endereço&#xa;telefone&#xa;" style="text;align=left;verticalAlign=top;spacingLeft=4;spacingRight=4;overflow=hidden;rotatable=0;points=[[0,0.5],[1,0.5]];portConstraint=eastwest;container=0;" parent="zkfFHV4jXpPFQw0GAbJ--0" vertex="1">
          <mxGeometry y="26" width="190" height="64" as="geometry" />
        </mxCell>
        <mxCell id="zkfFHV4jXpPFQw0GAbJ--13" value="Estado" style="swimlane;fontStyle=0;align=center;verticalAlign=top;childLayout=stackLayout;horizontal=1;startSize=26;horizontalStack=0;resizeParent=1;resizeLast=0;collapsible=1;marginBottom=0;rounded=0;shadow=0;strokeWidth=1;container=0;" parent="WIyWlLk6GJQsqaUBKTNV-1" vertex="1">
          <mxGeometry x="494" y="220" width="160" height="70" as="geometry">
            <mxRectangle x="340" y="380" width="170" height="26" as="alternateBounds" />
          </mxGeometry>
        </mxCell>
        <mxCell id="87SshtayELK0KyAv6o-h-5" value="Item" style="swimlane;fontStyle=0;childLayout=stackLayout;horizontal=1;startSize=30;horizontalStack=0;resizeParent=1;resizeParentMax=0;resizeLast=0;collapsible=1;marginBottom=0;whiteSpace=wrap;html=1;container=0;" parent="WIyWlLk6GJQsqaUBKTNV-1" vertex="1">
          <mxGeometry x="314" y="230" width="140" height="70" as="geometry" />
        </mxCell>
        <mxCell id="87SshtayELK0KyAv6o-h-9" value="" style="endArrow=none;html=1;rounded=0;" parent="WIyWlLk6GJQsqaUBKTNV-1" edge="1">
          <mxGeometry width="50" height="50" relative="1" as="geometry">
            <mxPoint x="314" y="254.47" as="sourcePoint" />
            <mxPoint x="214" y="254.47" as="targetPoint" />
            <Array as="points">
              <mxPoint x="284" y="254.47" />
            </Array>
          </mxGeometry>
        </mxCell>
        <mxCell id="87SshtayELK0KyAv6o-h-20" value="Avaliação" style="swimlane;fontStyle=0;align=center;verticalAlign=top;childLayout=stackLayout;horizontal=1;startSize=26;horizontalStack=0;resizeParent=1;resizeLast=0;collapsible=1;marginBottom=0;rounded=0;shadow=0;strokeWidth=1;container=0;" parent="WIyWlLk6GJQsqaUBKTNV-1" vertex="1">
          <mxGeometry x="123" y="560" width="160" height="110" as="geometry">
            <mxRectangle x="340" y="380" width="170" height="26" as="alternateBounds" />
          </mxGeometry>
        </mxCell>
        <mxCell id="87SshtayELK0KyAv6o-h-29" value="Termos de empréstimo" style="swimlane;fontStyle=0;align=center;verticalAlign=top;childLayout=stackLayout;horizontal=1;startSize=26;horizontalStack=0;resizeParent=1;resizeLast=0;collapsible=1;marginBottom=0;rounded=0;shadow=0;strokeWidth=1;container=0;" parent="WIyWlLk6GJQsqaUBKTNV-1" vertex="1">
          <mxGeometry x="484.17999999999995" y="430" width="159.82" height="110" as="geometry">
            <mxRectangle x="340" y="380" width="170" height="26" as="alternateBounds" />
          </mxGeometry>
        </mxCell>
        <mxCell id="87SshtayELK0KyAv6o-h-32" value="" style="endArrow=none;html=1;rounded=0;" parent="WIyWlLk6GJQsqaUBKTNV-1" edge="1">
          <mxGeometry width="50" height="50" relative="1" as="geometry">
            <mxPoint x="603" y="730" as="sourcePoint" />
            <mxPoint x="594" y="720" as="targetPoint" />
            <Array as="points" />
          </mxGeometry>
        </mxCell>
        <mxCell id="87SshtayELK0KyAv6o-h-36" value="Cliente" style="swimlane;fontStyle=0;align=center;verticalAlign=top;childLayout=stackLayout;horizontal=1;startSize=26;horizontalStack=0;resizeParent=1;resizeLast=0;collapsible=1;marginBottom=0;rounded=0;shadow=0;strokeWidth=1;container=0;" parent="WIyWlLk6GJQsqaUBKTNV-1" vertex="1">
          <mxGeometry x="408" y="750" width="156" height="120" as="geometry">
            <mxRectangle x="340" y="380" width="170" height="26" as="alternateBounds" />
          </mxGeometry>
        </mxCell>
        <mxCell id="ibe0FgVLeVuCVKN4VXd9-24" value="&lt;div align=&quot;justify&quot; style=&quot;font-size: 14px; line-height: 120%;&quot;&gt;&lt;font style=&quot;font-size: 14px;&quot;&gt;id_cliente&lt;br&gt;&lt;/font&gt;&lt;/div&gt;&lt;div style=&quot;font-size: 14px; line-height: 120%;&quot; align=&quot;justify&quot;&gt;&lt;font style=&quot;font-size: 14px;&quot;&gt;nome&lt;/font&gt;&lt;/div&gt;&lt;div style=&quot;font-size: 14px; line-height: 120%;&quot; align=&quot;justify&quot;&gt;&lt;font style=&quot;font-size: 14px;&quot;&gt;número_telemóvel&lt;/font&gt;&lt;/div&gt;&lt;div style=&quot;font-size: 14px; line-height: 120%;&quot; align=&quot;justify&quot;&gt;&lt;font style=&quot;font-size: 14px;&quot;&gt;email&lt;/font&gt;&lt;/div&gt;&lt;div align=&quot;justify&quot; style=&quot;font-size: 14px; line-height: 120%;&quot;&gt;&lt;font style=&quot;font-size: 14px;&quot;&gt;NIF&lt;br&gt;&lt;/font&gt;&lt;/div&gt;" style="text;whiteSpace=wrap;html=1;container=0;" parent="87SshtayELK0KyAv6o-h-36" vertex="1">
          <mxGeometry y="26" width="156" height="74" as="geometry" />
        </mxCell>
        <mxCell id="87SshtayELK0KyAv6o-h-39" value="Transação" style="swimlane;fontStyle=0;align=center;verticalAlign=top;childLayout=stackLayout;horizontal=1;startSize=26;horizontalStack=0;resizeParent=1;resizeLast=0;collapsible=1;marginBottom=0;rounded=0;shadow=0;strokeWidth=1;container=0;" parent="WIyWlLk6GJQsqaUBKTNV-1" vertex="1">
          <mxGeometry x="224" y="930" width="170" height="110" as="geometry">
            <mxRectangle x="340" y="380" width="170" height="26" as="alternateBounds" />
          </mxGeometry>
        </mxCell>
        <mxCell id="ibe0FgVLeVuCVKN4VXd9-22" value="id_transação&#xa;tipo&#xa;valor&#xa;data_transação&#xa;método_pagamento&#xa;" style="text;align=left;verticalAlign=top;spacingLeft=4;spacingRight=4;overflow=hidden;rotatable=0;points=[[0,0.5],[1,0.5]];portConstraint=eastwest;fontStyle=0;container=0;" parent="87SshtayELK0KyAv6o-h-39" vertex="1">
          <mxGeometry y="26" width="170" height="84" as="geometry" />
        </mxCell>
        <mxCell id="87SshtayELK0KyAv6o-h-41" value="Descrição" style="swimlane;fontStyle=0;childLayout=stackLayout;horizontal=1;startSize=30;horizontalStack=0;resizeParent=1;resizeParentMax=0;resizeLast=0;collapsible=1;marginBottom=0;whiteSpace=wrap;html=1;container=0;" parent="WIyWlLk6GJQsqaUBKTNV-1" vertex="1">
          <mxGeometry x="74" y="200" width="140" height="100" as="geometry" />
        </mxCell>
        <mxCell id="87SshtayELK0KyAv6o-h-27" value="Termos de Venda" style="swimlane;fontStyle=0;align=center;verticalAlign=top;childLayout=stackLayout;horizontal=1;startSize=26;horizontalStack=0;resizeParent=1;resizeLast=0;collapsible=1;marginBottom=0;rounded=0;shadow=0;strokeWidth=1;container=0;" parent="WIyWlLk6GJQsqaUBKTNV-1" vertex="1">
          <mxGeometry x="314" y="420" width="140" height="70" as="geometry">
            <mxRectangle x="340" y="380" width="170" height="26" as="alternateBounds" />
          </mxGeometry>
        </mxCell>
        <mxCell id="ibe0FgVLeVuCVKN4VXd9-29" value="" style="endArrow=none;html=1;rounded=0;entryX=0.663;entryY=0.984;entryDx=0;entryDy=0;entryPerimeter=0;exitX=0.5;exitY=0;exitDx=0;exitDy=0;" parent="WIyWlLk6GJQsqaUBKTNV-1" source="87SshtayELK0KyAv6o-h-27" edge="1">
          <mxGeometry width="50" height="50" relative="1" as="geometry">
            <mxPoint x="383.47" y="410" as="sourcePoint" />
            <mxPoint x="383.9600000000002" y="299.99600000000004" as="targetPoint" />
          </mxGeometry>
        </mxCell>
        <mxCell id="ibe0FgVLeVuCVKN4VXd9-31" value="" style="endArrow=none;html=1;rounded=0;exitX=0.381;exitY=0;exitDx=0;exitDy=0;exitPerimeter=0;" parent="WIyWlLk6GJQsqaUBKTNV-1" source="87SshtayELK0KyAv6o-h-20" edge="1">
          <mxGeometry width="50" height="50" relative="1" as="geometry">
            <mxPoint x="154" y="510" as="sourcePoint" />
            <mxPoint x="274" y="490" as="targetPoint" />
            <Array as="points">
              <mxPoint x="184" y="490" />
            </Array>
          </mxGeometry>
        </mxCell>
        <mxCell id="ibe0FgVLeVuCVKN4VXd9-32" value="" style="endArrow=none;html=1;rounded=0;" parent="WIyWlLk6GJQsqaUBKTNV-1" edge="1">
          <mxGeometry width="50" height="50" relative="1" as="geometry">
            <mxPoint x="404" y="810" as="sourcePoint" />
            <mxPoint x="294" y="810" as="targetPoint" />
            <Array as="points" />
          </mxGeometry>
        </mxCell>
        <mxCell id="kfRFtVWWlGpXpjC6ZaTj-0" value="" style="endArrow=none;html=1;rounded=0;entryX=0.235;entryY=1.075;entryDx=0;entryDy=0;entryPerimeter=0;" parent="WIyWlLk6GJQsqaUBKTNV-1" edge="1" target="ibe0FgVLeVuCVKN4VXd9-11">
          <mxGeometry width="50" height="50" relative="1" as="geometry">
            <mxPoint x="294" y="810" as="sourcePoint" />
            <mxPoint x="354" y="370" as="targetPoint" />
            <Array as="points">
              <mxPoint x="294" y="370" />
              <mxPoint x="347" y="370" />
            </Array>
          </mxGeometry>
        </mxCell>
        <mxCell id="kfRFtVWWlGpXpjC6ZaTj-4" value="" style="endArrow=none;html=1;rounded=0;exitX=0.456;exitY=-0.021;exitDx=0;exitDy=0;exitPerimeter=0;" parent="WIyWlLk6GJQsqaUBKTNV-1" source="ibe0FgVLeVuCVKN4VXd9-33" edge="1">
          <mxGeometry width="50" height="50" relative="1" as="geometry">
            <mxPoint x="424" y="690" as="sourcePoint" />
            <mxPoint x="206" y="669" as="targetPoint" />
            <Array as="points">
              <mxPoint x="100" y="730" />
              <mxPoint x="184" y="730" />
              <mxPoint x="206" y="730" />
            </Array>
          </mxGeometry>
        </mxCell>
        <mxCell id="BK3RTOM4ylX85SdspDBA-0" value="" style="endArrow=none;html=1;rounded=0;exitX=0.125;exitY=0;exitDx=0;exitDy=0;exitPerimeter=0;" edge="1" parent="WIyWlLk6GJQsqaUBKTNV-1" source="ibe0FgVLeVuCVKN4VXd9-33">
          <mxGeometry width="50" height="50" relative="1" as="geometry">
            <mxPoint x="34" y="750" as="sourcePoint" />
            <mxPoint x="34" y="110" as="targetPoint" />
          </mxGeometry>
        </mxCell>
        <mxCell id="BK3RTOM4ylX85SdspDBA-16" value="" style="endArrow=none;html=1;rounded=0;" edge="1" parent="WIyWlLk6GJQsqaUBKTNV-1">
          <mxGeometry width="50" height="50" relative="1" as="geometry">
            <mxPoint x="34" y="110" as="sourcePoint" />
            <mxPoint x="278" y="110" as="targetPoint" />
          </mxGeometry>
        </mxCell>
        <mxCell id="BK3RTOM4ylX85SdspDBA-22" value="" style="endArrow=none;dashed=1;html=1;dashPattern=1 3;strokeWidth=2;rounded=0;" edge="1" parent="WIyWlLk6GJQsqaUBKTNV-1">
          <mxGeometry width="50" height="50" relative="1" as="geometry">
            <mxPoint x="684" y="480" as="sourcePoint" />
            <mxPoint x="644" y="480" as="targetPoint" />
          </mxGeometry>
        </mxCell>
        <mxCell id="BK3RTOM4ylX85SdspDBA-24" value="&lt;div style=&quot;font-size: 10px; padding-right: 3px; margin-bottom: 0px; margin-top: 16px;&quot; align=&quot;center&quot;&gt;&lt;font style=&quot;font-size: 10px;&quot;&gt;{status: {&quot;data vencida&quot;, &quot;dentro do prazo estipulado&quot;}}&lt;/font&gt;&lt;/div&gt;&lt;div style=&quot;font-size: 10px; padding-right: 3px; margin-bottom: 0px; margin-top: 16px;&quot; align=&quot;center&quot;&gt;&lt;font style=&quot;font-size: 10px;&quot;&gt;se status == &quot;data vencida&quot;, Estado-&amp;gt;tipo == &quot;à venda&quot;&lt;br&gt;&lt;/font&gt;&lt;/div&gt;" style="shape=note;whiteSpace=wrap;html=1;backgroundOutline=1;darkOpacity=0.05;align=center;container=0;" vertex="1" parent="WIyWlLk6GJQsqaUBKTNV-1">
          <mxGeometry x="644" y="570" width="130" height="170" as="geometry" />
        </mxCell>
        <mxCell id="BK3RTOM4ylX85SdspDBA-26" value="&lt;p style=&quot;line-height: 110%; margin-top: 30px; padding-right: 0px;&quot;&gt;&lt;font style=&quot;font-size: 10px;&quot;&gt;{tipo: {&quot;compra&quot;, &quot;requisição de empréstimo&quot;, &quot;devolução do empréstimo&quot;}}&lt;/font&gt;&lt;/p&gt;" style="shape=note;whiteSpace=wrap;html=1;backgroundOutline=1;darkOpacity=0.05;spacingBottom=4;labelBorderColor=none;container=0;" vertex="1" parent="WIyWlLk6GJQsqaUBKTNV-1">
          <mxGeometry x="474" y="960" width="150" height="100" as="geometry" />
        </mxCell>
        <mxCell id="BK3RTOM4ylX85SdspDBA-27" value="" style="endArrow=none;dashed=1;html=1;dashPattern=1 3;strokeWidth=2;rounded=0;" edge="1" parent="WIyWlLk6GJQsqaUBKTNV-1" target="BK3RTOM4ylX85SdspDBA-28">
          <mxGeometry width="50" height="50" relative="1" as="geometry">
            <mxPoint x="573" y="220" as="sourcePoint" />
            <mxPoint x="573" y="300" as="targetPoint" />
          </mxGeometry>
        </mxCell>
        <mxCell id="BK3RTOM4ylX85SdspDBA-28" value="&lt;div style=&quot;font-size: 11px; margin-top: 20px;&quot;&gt;&lt;font style=&quot;font-size: 10px;&quot;&gt;{tipo: {&quot;penhorado&quot;, &quot;à venda&quot; , &quot;reservado para venda&quot;}&lt;/font&gt;&lt;/div&gt;" style="shape=note;whiteSpace=wrap;html=1;backgroundOutline=1;darkOpacity=0.05;container=0;" vertex="1" parent="WIyWlLk6GJQsqaUBKTNV-1">
          <mxGeometry x="534" y="60" width="80" height="110" as="geometry" />
        </mxCell>
        <mxCell id="BK3RTOM4ylX85SdspDBA-30" value="&lt;p style=&quot;line-height: 110%; margin-top: 30px;&quot;&gt;&lt;font style=&quot;font-size: 11px;&quot;&gt;{Termos de venda-&amp;gt; data_colocado_à_venda &amp;gt; Item-&amp;gt;data_entrada} &lt;/font&gt;&lt;/p&gt;" style="shape=note;whiteSpace=wrap;html=1;backgroundOutline=1;darkOpacity=0.05;container=0;" vertex="1" parent="WIyWlLk6GJQsqaUBKTNV-1">
          <mxGeometry x="314" y="560" width="140" height="90" as="geometry" />
        </mxCell>
        <mxCell id="BK3RTOM4ylX85SdspDBA-33" value="{Estado-&amp;gt; data_atribuição_estado &amp;gt;= Item-&amp;gt;data_entrada}}" style="shape=note;whiteSpace=wrap;html=1;backgroundOutline=1;darkOpacity=0.05;container=0;" vertex="1" parent="WIyWlLk6GJQsqaUBKTNV-1">
          <mxGeometry x="674" y="195" width="130" height="140" as="geometry" />
        </mxCell>
        <mxCell id="BK3RTOM4ylX85SdspDBA-34" value="" style="endArrow=none;dashed=1;html=1;dashPattern=1 3;strokeWidth=2;rounded=0;entryX=0.75;entryY=1;entryDx=0;entryDy=0;" edge="1" parent="WIyWlLk6GJQsqaUBKTNV-1" target="87SshtayELK0KyAv6o-h-20">
          <mxGeometry width="50" height="50" relative="1" as="geometry">
            <mxPoint x="244" y="770" as="sourcePoint" />
            <mxPoint x="314" y="690" as="targetPoint" />
          </mxGeometry>
        </mxCell>
        <mxCell id="BK3RTOM4ylX85SdspDBA-35" value="&lt;p style=&quot;line-height: 110%;&quot;&gt;&lt;/p&gt;&lt;div style=&quot;margin-top: 25px;&quot;&gt;{Avaliação-&amp;gt; data_avaliação &amp;gt;=&amp;nbsp;&lt;/div&gt;&lt;div&gt;Item-&amp;gt;data_entrada}&lt;/div&gt;&lt;p&gt;&lt;/p&gt;" style="shape=note;whiteSpace=wrap;html=1;backgroundOutline=1;darkOpacity=0.05;container=0;" vertex="1" parent="WIyWlLk6GJQsqaUBKTNV-1">
          <mxGeometry x="203" y="750" width="80" height="140" as="geometry" />
        </mxCell>
        <mxCell id="BK3RTOM4ylX85SdspDBA-40" value="" style="endArrow=none;html=1;rounded=0;exitX=1;exitY=0.5;exitDx=0;exitDy=0;entryX=0;entryY=0.5;entryDx=0;entryDy=0;" edge="1" parent="WIyWlLk6GJQsqaUBKTNV-1" target="ibe0FgVLeVuCVKN4VXd9-6">
          <mxGeometry width="50" height="50" relative="1" as="geometry">
            <mxPoint x="454" y="269.5" as="sourcePoint" />
            <mxPoint x="494" y="270.5" as="targetPoint" />
          </mxGeometry>
        </mxCell>
        <mxCell id="BK3RTOM4ylX85SdspDBA-41" value="" style="endArrow=none;html=1;rounded=0;entryX=0.874;entryY=0.996;entryDx=0;entryDy=0;entryPerimeter=0;" edge="1" parent="WIyWlLk6GJQsqaUBKTNV-1" target="ibe0FgVLeVuCVKN4VXd9-11">
          <mxGeometry width="50" height="50" relative="1" as="geometry">
            <mxPoint x="544" y="430" as="sourcePoint" />
            <mxPoint x="376" y="451" as="targetPoint" />
            <Array as="points">
              <mxPoint x="544" y="350" />
              <mxPoint x="436" y="350" />
            </Array>
          </mxGeometry>
        </mxCell>
        <mxCell id="BK3RTOM4ylX85SdspDBA-42" value="" style="endArrow=none;html=1;rounded=0;entryX=0;entryY=0.5;entryDx=0;entryDy=0;" edge="1" parent="WIyWlLk6GJQsqaUBKTNV-1" target="ibe0FgVLeVuCVKN4VXd9-11">
          <mxGeometry width="50" height="50" relative="1" as="geometry">
            <mxPoint x="274" y="490" as="sourcePoint" />
            <mxPoint x="254" y="280" as="targetPoint" />
            <Array as="points">
              <mxPoint x="274" y="280" />
            </Array>
          </mxGeometry>
        </mxCell>
        <mxCell id="BK3RTOM4ylX85SdspDBA-44" value="" style="endArrow=none;dashed=1;html=1;dashPattern=1 3;strokeWidth=2;rounded=0;exitX=1;exitY=0.5;exitDx=0;exitDy=0;entryX=0;entryY=0.536;entryDx=0;entryDy=0;entryPerimeter=0;" edge="1" parent="WIyWlLk6GJQsqaUBKTNV-1" source="ibe0FgVLeVuCVKN4VXd9-6" target="BK3RTOM4ylX85SdspDBA-33">
          <mxGeometry width="50" height="50" relative="1" as="geometry">
            <mxPoint x="654" y="290" as="sourcePoint" />
            <mxPoint x="678" y="283" as="targetPoint" />
          </mxGeometry>
        </mxCell>
        <mxCell id="ibe0FgVLeVuCVKN4VXd9-2" value="&#xa;" style="text;align=left;verticalAlign=top;spacingLeft=4;spacingRight=4;overflow=hidden;rotatable=0;points=[[0,0.5],[1,0.5]];portConstraint=eastwest;container=0;" parent="WIyWlLk6GJQsqaUBKTNV-1" vertex="1">
          <mxGeometry x="278" y="150" width="196" height="4" as="geometry" />
        </mxCell>
        <mxCell id="ibe0FgVLeVuCVKN4VXd9-6" value="tipo&#xa;data_atribuição_estado" style="text;align=left;verticalAlign=top;spacingLeft=4;spacingRight=4;overflow=hidden;rotatable=0;points=[[0,0.5],[1,0.5]];portConstraint=eastwest;fontStyle=0;container=0;" parent="WIyWlLk6GJQsqaUBKTNV-1" vertex="1">
          <mxGeometry x="494" y="246" width="160" height="48" as="geometry" />
        </mxCell>
        <mxCell id="ibe0FgVLeVuCVKN4VXd9-11" value="id_item&#xa;data_entrada&#xa;" style="text;align=left;verticalAlign=top;spacingLeft=4;spacingRight=4;overflow=hidden;rotatable=0;points=[[0,0.5],[1,0.5]];portConstraint=eastwest;fontStyle=0;container=0;" parent="WIyWlLk6GJQsqaUBKTNV-1" vertex="1">
          <mxGeometry x="314" y="260" width="140" height="40" as="geometry" />
        </mxCell>
        <mxCell id="ibe0FgVLeVuCVKN4VXd9-14" value="id_avaliação&#xa;data_avaliação&#xa;notas_avaliação&#xa;valor_avaliado&#xa;estado_conservação&#xa;&#xa;" style="text;align=left;verticalAlign=top;spacingLeft=4;spacingRight=4;overflow=hidden;rotatable=0;points=[[0,0.5],[1,0.5]];portConstraint=eastwest;fontStyle=0;container=0;" parent="WIyWlLk6GJQsqaUBKTNV-1" vertex="1">
          <mxGeometry x="123" y="586" width="160" height="84" as="geometry" />
        </mxCell>
        <mxCell id="ibe0FgVLeVuCVKN4VXd9-19" value="valor_empréstimo&#xa;valor_juros&#xa;data_início_empréstimo&#xa;data_limite_pagamento&#xa;status&#xa;" style="text;align=left;verticalAlign=top;spacingLeft=4;spacingRight=4;overflow=hidden;rotatable=0;points=[[0,0.5],[1,0.5]];portConstraint=eastwest;fontStyle=0;aspect=fixed;container=0;" parent="WIyWlLk6GJQsqaUBKTNV-1" vertex="1">
          <mxGeometry x="484.17999999999995" y="456" width="159.82" height="84" as="geometry" />
        </mxCell>
        <mxCell id="ibe0FgVLeVuCVKN4VXd9-42" value="nome&#xa;categoria&#xa;dimensões&#xa;material&#xa;" style="text;align=left;verticalAlign=top;spacingLeft=4;spacingRight=4;overflow=hidden;rotatable=0;points=[[0,0.5],[1,0.5]];portConstraint=eastwest;fontStyle=0;container=0;" parent="WIyWlLk6GJQsqaUBKTNV-1" vertex="1">
          <mxGeometry x="74" y="230" width="140" height="70" as="geometry" />
        </mxCell>
        <mxCell id="ibe0FgVLeVuCVKN4VXd9-15" value="preço_venda&#xa;data_colocado_à_venda&#xa;" style="text;align=left;verticalAlign=top;spacingLeft=4;spacingRight=4;overflow=hidden;rotatable=0;points=[[0,0.5],[1,0.5]];portConstraint=eastwest;fontStyle=0;container=0;" parent="WIyWlLk6GJQsqaUBKTNV-1" vertex="1">
          <mxGeometry x="314" y="446" width="140" height="44" as="geometry" />
        </mxCell>
        <mxCell id="BK3RTOM4ylX85SdspDBA-46" value="" style="endArrow=none;dashed=1;html=1;dashPattern=1 3;strokeWidth=2;rounded=0;" edge="1" parent="WIyWlLk6GJQsqaUBKTNV-1">
          <mxGeometry width="50" height="50" relative="1" as="geometry">
            <mxPoint x="644" y="530" as="sourcePoint" />
            <mxPoint x="684" y="530" as="targetPoint" />
          </mxGeometry>
        </mxCell>
        <mxCell id="BK3RTOM4ylX85SdspDBA-47" value="" style="endArrow=none;dashed=1;html=1;dashPattern=1 3;strokeWidth=2;rounded=0;exitX=0.427;exitY=0.003;exitDx=0;exitDy=0;exitPerimeter=0;" edge="1" parent="WIyWlLk6GJQsqaUBKTNV-1">
          <mxGeometry width="50" height="50" relative="1" as="geometry">
            <mxPoint x="678.5" y="570" as="sourcePoint" />
            <mxPoint x="678.5" y="530" as="targetPoint" />
          </mxGeometry>
        </mxCell>
        <mxCell id="BK3RTOM4ylX85SdspDBA-48" value="" style="endArrow=none;dashed=1;html=1;dashPattern=1 3;strokeWidth=2;rounded=0;exitX=0.339;exitY=-0.017;exitDx=0;exitDy=0;exitPerimeter=0;entryX=0.339;entryY=1.023;entryDx=0;entryDy=0;entryPerimeter=0;" edge="1" parent="WIyWlLk6GJQsqaUBKTNV-1" source="BK3RTOM4ylX85SdspDBA-30" target="ibe0FgVLeVuCVKN4VXd9-15">
          <mxGeometry width="50" height="50" relative="1" as="geometry">
            <mxPoint x="204" y="630" as="sourcePoint" />
            <mxPoint x="254" y="580" as="targetPoint" />
          </mxGeometry>
        </mxCell>
        <mxCell id="BK3RTOM4ylX85SdspDBA-52" value="" style="endArrow=none;dashed=1;html=1;dashPattern=1 3;strokeWidth=2;rounded=0;" edge="1" parent="WIyWlLk6GJQsqaUBKTNV-1">
          <mxGeometry width="50" height="50" relative="1" as="geometry">
            <mxPoint x="354" y="930" as="sourcePoint" />
            <mxPoint x="354" y="810" as="targetPoint" />
          </mxGeometry>
        </mxCell>
        <mxCell id="BK3RTOM4ylX85SdspDBA-53" value="" style="endArrow=none;dashed=1;html=1;dashPattern=1 3;strokeWidth=2;rounded=0;exitX=1.008;exitY=0.602;exitDx=0;exitDy=0;exitPerimeter=0;entryX=-0.017;entryY=0.61;entryDx=0;entryDy=0;entryPerimeter=0;" edge="1" parent="WIyWlLk6GJQsqaUBKTNV-1">
          <mxGeometry width="50" height="50" relative="1" as="geometry">
            <mxPoint x="397.82999999999976" y="1009.3959999999998" as="sourcePoint" />
            <mxPoint x="473.99999999999983" y="1009.38" as="targetPoint" />
          </mxGeometry>
        </mxCell>
        <mxCell id="BK3RTOM4ylX85SdspDBA-57" value="" style="endArrow=none;html=1;rounded=0;" edge="1" parent="WIyWlLk6GJQsqaUBKTNV-1">
          <mxGeometry width="50" height="50" relative="1" as="geometry">
            <mxPoint x="384" y="230" as="sourcePoint" />
            <mxPoint x="384" y="160" as="targetPoint" />
          </mxGeometry>
        </mxCell>
      </root>
    </mxGraphModel>
  </diagram>
</mxfile>
